<?xml version="1.0" encoding="UTF-8" standalone="no"?>
<svg
   xmlns:dc="http://purl.org/dc/elements/1.1/"
   xmlns:cc="http://creativecommons.org/ns#"
   xmlns:rdf="http://www.w3.org/1999/02/22-rdf-syntax-ns#"
   xmlns:svg="http://www.w3.org/2000/svg"
   xmlns="http://www.w3.org/2000/svg"
   viewBox="0 0 1280 294.07999"
   height="294.07999"
   width="1280"
   xml:space="preserve"
   id="svg2"
   version="1.1"><metadata
     id="metadata8"><rdf:RDF><cc:Work
         rdf:about=""><dc:format>image/svg+xml</dc:format><dc:type
           rdf:resource="http://purl.org/dc/dcmitype/StillImage" /></cc:Work></rdf:RDF></metadata><defs
     id="defs6"><clipPath
       id="clipPath18"
       clipPathUnits="userSpaceOnUse"><path
         style="clip-rule:evenodd"
         id="path16"
         d="M 0,4.5776e-5 H 960 V 220.56005 H 0 Z" /></clipPath><clipPath
       id="clipPath28"
       clipPathUnits="userSpaceOnUse"><path
         style="clip-rule:evenodd"
         id="path26"
         d="M 0,4.5776e-5 H 960 V 220.56005 H 0 Z" /></clipPath></defs><g
     transform="matrix(1.3333333,0,0,-1.3333333,0,294.08)"
     id="g10"><g
       id="g12"><g
         clip-path="url(#clipPath18)"
         id="g14"><path
           id="path20"
           style="fill:#ffffff;fill-opacity:1;fill-rule:evenodd;stroke:none"
           d="M 0,1.5259e-5 H 960 V 220.56002 H 0 Z" /></g></g><g
       id="g22"><g
         clip-path="url(#clipPath28)"
         id="g24"><path
           id="path30"
           style="fill:#d7f01a;fill-opacity:1;fill-rule:evenodd;stroke:none"
           d="m 154.44,77.092 c 0,-10.95 -1.84,-21.12 -5.53,-30.492 C 145.22,37.21 139.97,29.063 133.16,22.122 126.36,15.199 118.14,9.7802 108.55,5.8643 98.941,1.9671 88.331,1.5259e-5 76.719,1.5259e-5 64.662,1.5259e-5 53.885,1.8929 44.388,5.6973 34.891,9.5018 26.859,14.791 20.274,21.621 13.689,28.431 8.6625,36.542 5.1938,45.914 1.725,55.304 0,65.697 0,77.092 v 96.748 c 0,1.54 1.2428,2.8 2.801,2.8 H 41.42 c 1.54,0 2.801,-1.24 2.801,-2.8 V 75.737 c 0,-2.468 0.334,-5.53 1.002,-9.223 0.668,-3.693 2.114,-7.312 4.359,-10.894 2.226,-3.582 5.472,-6.588 9.72,-9.057 4.247,-2.468 10.053,-3.693 17.417,-3.693 9.831,0 17.863,3.062 24.111,9.224 6.25,6.143 9.39,14.03 9.39,23.625 v 98.121 c 0,1.54 1.24,2.8 2.8,2.8 h 38.62 c 1.54,0 2.8,-1.24 2.8,-2.8 z" /></g></g><path
       id="path32"
       style="fill:#d7f01a;fill-opacity:1;fill-rule:evenodd;stroke:none"
       d="m 268.44,7.0139 c 0,-1.447 -1.11,-2.6712 -2.54,-2.7826 -11.69,-0.9831 -22,-0.1112 -30.97,2.5784 -9.61,2.8938 -17.64,7.5873 -24.11,14.0793 -6.48,6.474 -11.39,14.451 -14.75,23.948 -3.36,9.498 -5.03,20.145 -5.03,31.999 V 217.76 c 0,1.54 1.24,2.8 2.8,2.8 h 38.63 c 1.54,0 2.8,-1.24 2.8,-2.8 v -38.31 c 0,-1.54 1.24,-2.8 2.8,-2.8 h 25.56 c 1.54,0 2.81,-1.24 2.81,-2.8 v -33.61 c 0,-1.54 -1.25,-2.8 -2.81,-2.8 h -25.56 c -1.54,0 -2.8,-1.24 -2.8,-2.8 V 76.465 c 0,-12.058 2.73,-20.554 8.2,-25.469 5.01,-4.49 12.37,-6.66 22.13,-6.474 1.56,0.018 2.82,-1.243 2.82,-2.783 V 7.0139 Z" /><path
       id="path34"
       style="fill:#d7f01a;fill-opacity:1;fill-rule:evenodd;stroke:none"
       d="m 376.69,181.08 c 12.06,0 23.34,-2.3 33.84,-6.87 10.51,-4.58 19.73,-10.95 27.65,-19.09 7.92,-8.17 14.17,-17.76 18.76,-28.82 4.58,-11.06 6.86,-23.07 6.86,-36.043 0,-12.954 -2.3,-24.924 -6.86,-35.855 C 452.35,43.453 446.1,33.951 438.18,25.916 430.26,17.88 421.04,11.552 410.53,6.9864 400.03,2.4025 388.75,0.11981 376.69,0.11981 c -12.06,0 -23.34,2.30119 -33.84,6.86659 -10.5,4.5836 -19.66,10.8936 -27.48,18.9296 -7.82,8.035 -14.02,17.537 -18.59,28.486 -4.58,10.95 -6.86,22.901 -6.86,35.855 0,12.953 2.28,24.963 6.86,36.043 4.59,11.06 10.78,20.65 18.59,28.82 7.82,8.14 16.98,14.53 27.48,19.09 10.48,4.57 21.78,6.87 33.84,6.87 z m 0.17,-140.429 c 5.83,0 11.34,1.169 16.48,3.526 5.15,2.338 9.7,5.697 13.61,10.058 3.92,4.361 7.02,9.558 9.26,15.589 2.25,6.031 3.36,12.731 3.36,20.117 0,7.368 -1.13,14.179 -3.36,20.449 -2.24,6.26 -5.32,11.62 -9.26,16.09 -3.93,4.47 -8.46,7.93 -13.61,10.39 -5.16,2.45 -10.65,3.7 -16.48,3.7 -5.83,0 -11.39,-1.23 -16.66,-3.7 -5.27,-2.46 -9.82,-5.92 -13.62,-10.39 -3.8,-4.47 -6.84,-9.83 -9.07,-16.09 -2.25,-6.25 -3.36,-13.063 -3.36,-20.449 0,-7.367 1.11,-14.086 3.36,-20.117 2.24,-6.031 5.27,-11.228 9.07,-15.589 3.8,-4.361 8.37,-7.701 13.62,-10.058 5.27,-2.357 10.82,-3.526 16.66,-3.526 z" /><path
       id="path36"
       style="fill:#d7f01a;fill-opacity:1;fill-rule:evenodd;stroke:none"
       d="M 754.12,4.0798 H 715.5 c -1.54,0 -2.8,1.243 -2.8,2.8012 v 98.039 c 0,2.45 -0.33,5.53 -1,9.22 -0.67,3.69 -2.13,7.31 -4.36,10.89 -2.24,3.56 -5.47,6.59 -9.72,9.05 -4.25,2.45 -10.05,3.69 -17.42,3.69 -9.83,0 -17.88,-3 -24.11,-9.05 -6.25,-6.03 -9.39,-13.97 -9.39,-23.78 V 6.8995 c 0,-1.5397 -1.24,-2.8012 -2.8,-2.8012 h -38.61 c -1.54,0 -2.81,1.2429 -2.81,2.8012 V 104.92 c 0,2.45 -0.33,5.53 -1,9.22 -0.67,3.69 -2.08,7.31 -4.19,10.89 -2.13,3.56 -5.3,6.59 -9.55,9.05 -4.25,2.45 -10.06,3.69 -17.42,3.69 -10.05,0 -18.14,-3 -24.28,-9.05 -6.14,-6.03 -9.22,-13.97 -9.22,-23.78 V 6.8995 c 0,-1.5397 -1.24,-2.8012 -2.8,-2.8012 H 495.4 c -1.54,0 -2.8,1.2429 -2.8,2.8012 V 103.92 c 0,10.94 1.84,21.11 5.53,30.48 3.69,9.38 8.88,17.53 15.58,24.45 6.69,6.92 14.86,12.33 24.46,16.25 9.59,3.91 20.32,5.86 32.17,5.86 11.83,0 22.39,-2.17 31.66,-6.53 8.31,-3.9 15.4,-9.11 21.3,-15.62 1.07,-1.19 2.95,-1.19 4.02,-0.04 6.09,6.51 13.34,11.73 21.76,15.64 9.38,4.36 19.75,6.53 31.16,6.53 12.06,0 22.84,-1.89 32.33,-5.69 9.5,-3.81 17.53,-9.11 24.12,-15.92 6.58,-6.81 11.61,-14.91 15.08,-24.28 3.45,-9.39 5.19,-19.76 5.19,-31.17 V 6.8438 c -0.04,-1.521 -1.3,-2.764 -2.84,-2.764 z" /><path
       id="path38"
       style="fill:#d7f01a;fill-opacity:1;fill-rule:evenodd;stroke:none"
       d="m 872.58,181.08 c 12.07,0 23.36,-2.3 33.86,-6.87 10.51,-4.58 19.72,-10.95 27.66,-19.09 7.93,-8.17 14.21,-17.76 18.79,-28.82 4.57,-11.06 6.87,-23.07 6.87,-36.043 0,-12.954 -2.3,-24.924 -6.87,-35.855 C 948.31,43.453 942.05,33.951 934.1,25.916 926.18,17.88 916.95,11.552 906.44,6.9864 895.94,2.4025 884.65,0.11981 872.58,0.11981 c -12.06,0 -23.35,2.30119 -33.86,6.86659 -10.5,4.5836 -19.67,10.8936 -27.49,18.9296 -7.82,8.035 -14.03,17.537 -18.6,28.486 -4.59,10.95 -6.87,22.901 -6.87,35.855 0,12.953 2.28,24.963 6.87,36.043 4.57,11.06 10.78,20.65 18.6,28.82 7.82,8.14 16.99,14.53 27.49,19.09 10.49,4.57 21.78,6.87 33.86,6.87 z m 0.17,-140.429 c 5.83,0 11.34,1.169 16.49,3.526 5.16,2.338 9.7,5.697 13.64,10.058 3.94,4.361 7.02,9.558 9.26,15.589 2.25,6.031 3.38,12.731 3.38,20.117 0,7.368 -1.13,14.179 -3.38,20.449 -2.24,6.26 -5.32,11.62 -9.26,16.09 -3.94,4.47 -8.47,7.93 -13.64,10.39 -5.17,2.45 -10.66,3.7 -16.49,3.7 -5.83,0 -11.4,-1.23 -16.65,-3.7 -5.27,-2.46 -9.82,-5.92 -13.65,-10.39 -3.8,-4.47 -6.85,-9.83 -9.09,-16.09 -2.25,-6.25 -3.36,-13.063 -3.36,-20.449 0,-7.367 1.11,-14.086 3.36,-20.117 2.24,-6.031 5.27,-11.228 9.09,-15.589 3.81,-4.361 8.36,-7.701 13.65,-10.058 5.25,-2.357 10.8,-3.526 16.65,-3.526 z" /></g></svg>